<mxfile host="app.diagrams.net" modified="2023-11-22T04:54:57.730Z" agent="Mozilla/5.0 (X11; Linux x86_64) AppleWebKit/537.36 (KHTML, like Gecko) Chrome/119.0.0.0 Safari/537.36" etag="eoEF1xJq8GIpXb5-ZaO8" version="22.1.3" type="google">
  <diagram name="Page-1" id="DVYQqorRkGLsRXQ-Cx3g">
    <mxGraphModel grid="1" page="1" gridSize="10" guides="1" tooltips="1" connect="1" arrows="1" fold="1" pageScale="1" pageWidth="827" pageHeight="1169" math="0" shadow="0">
      <root>
        <mxCell id="0" />
        <mxCell id="1" parent="0" />
        <mxCell id="5XfUrKpNjmvtm7yDiPhU-18" value="Airports" style="swimlane;childLayout=stackLayout;horizontal=1;startSize=50;horizontalStack=0;rounded=1;fontSize=14;fontStyle=0;strokeWidth=2;resizeParent=0;resizeLast=1;shadow=0;dashed=0;align=center;arcSize=4;whiteSpace=wrap;html=1;fillColor=#d5e8d4;strokeColor=#82b366;" vertex="1" parent="1">
          <mxGeometry x="-110" y="180" width="160" height="120" as="geometry" />
        </mxCell>
        <mxCell id="5XfUrKpNjmvtm7yDiPhU-19" value="+ id&lt;br&gt;+ location&lt;br&gt;+ code [ relevant ]&lt;br&gt;+ name" style="align=left;strokeColor=none;fillColor=none;spacingLeft=4;fontSize=12;verticalAlign=top;resizable=0;rotatable=0;part=1;html=1;" vertex="1" parent="5XfUrKpNjmvtm7yDiPhU-18">
          <mxGeometry y="50" width="160" height="70" as="geometry" />
        </mxCell>
        <mxCell id="5XfUrKpNjmvtm7yDiPhU-20" value="Class [enum]" style="swimlane;childLayout=stackLayout;horizontal=1;startSize=50;horizontalStack=0;rounded=1;fontSize=14;fontStyle=0;strokeWidth=2;resizeParent=0;resizeLast=1;shadow=0;dashed=0;align=center;arcSize=4;whiteSpace=wrap;html=1;fillColor=#f8cecc;strokeColor=#b85450;" vertex="1" parent="1">
          <mxGeometry x="640" y="180" width="160" height="120" as="geometry" />
        </mxCell>
        <mxCell id="5XfUrKpNjmvtm7yDiPhU-21" value="+Attribute1&#xa;+Attribute2&#xa;+Attribute3" style="align=left;strokeColor=none;fillColor=none;spacingLeft=4;fontSize=12;verticalAlign=top;resizable=0;rotatable=0;part=1;html=1;" vertex="1" parent="5XfUrKpNjmvtm7yDiPhU-20">
          <mxGeometry y="50" width="160" height="70" as="geometry" />
        </mxCell>
        <mxCell id="5XfUrKpNjmvtm7yDiPhU-22" value="Cabin&amp;nbsp;[enum]" style="swimlane;childLayout=stackLayout;horizontal=1;startSize=50;horizontalStack=0;rounded=1;fontSize=14;fontStyle=0;strokeWidth=2;resizeParent=0;resizeLast=1;shadow=0;dashed=0;align=center;arcSize=4;whiteSpace=wrap;html=1;fillColor=#f8cecc;strokeColor=#b85450;" vertex="1" parent="1">
          <mxGeometry x="640" y="330" width="160" height="120" as="geometry" />
        </mxCell>
        <mxCell id="5XfUrKpNjmvtm7yDiPhU-23" value="+Attribute1&#xa;+Attribute2&#xa;+Attribute3" style="align=left;strokeColor=none;fillColor=none;spacingLeft=4;fontSize=12;verticalAlign=top;resizable=0;rotatable=0;part=1;html=1;" vertex="1" parent="5XfUrKpNjmvtm7yDiPhU-22">
          <mxGeometry y="50" width="160" height="70" as="geometry" />
        </mxCell>
        <mxCell id="5XfUrKpNjmvtm7yDiPhU-24" value="Aircraft" style="swimlane;childLayout=stackLayout;horizontal=1;startSize=50;horizontalStack=0;rounded=1;fontSize=14;fontStyle=0;strokeWidth=2;resizeParent=0;resizeLast=1;shadow=0;dashed=0;align=center;arcSize=4;whiteSpace=wrap;html=1;fillColor=#d5e8d4;strokeColor=#82b366;" vertex="1" parent="1">
          <mxGeometry x="-110" y="320" width="160" height="150" as="geometry" />
        </mxCell>
        <mxCell id="5XfUrKpNjmvtm7yDiPhU-25" value="+ code PK&lt;br&gt;+ name&lt;br&gt;+ class wise capacity&lt;br&gt;+ cabin wise capacity" style="align=left;strokeColor=none;fillColor=none;spacingLeft=4;fontSize=12;verticalAlign=top;resizable=0;rotatable=0;part=1;html=1;" vertex="1" parent="5XfUrKpNjmvtm7yDiPhU-24">
          <mxGeometry y="50" width="160" height="100" as="geometry" />
        </mxCell>
        <mxCell id="5XfUrKpNjmvtm7yDiPhU-27" value="User [ irrelevant ]" style="swimlane;childLayout=stackLayout;horizontal=1;startSize=50;horizontalStack=0;rounded=1;fontSize=14;fontStyle=0;strokeWidth=2;resizeParent=0;resizeLast=1;shadow=0;dashed=0;align=center;arcSize=4;whiteSpace=wrap;html=1;fillColor=#d5e8d4;strokeColor=#82b366;" vertex="1" parent="1">
          <mxGeometry x="-330" y="480" width="160" height="150" as="geometry" />
        </mxCell>
        <mxCell id="5XfUrKpNjmvtm7yDiPhU-28" value="+ id&lt;br&gt;+ name&lt;br&gt;+ age&lt;br&gt;+ Need special treatment" style="align=left;strokeColor=none;fillColor=none;spacingLeft=4;fontSize=12;verticalAlign=top;resizable=0;rotatable=0;part=1;html=1;" vertex="1" parent="5XfUrKpNjmvtm7yDiPhU-27">
          <mxGeometry y="50" width="160" height="100" as="geometry" />
        </mxCell>
        <mxCell id="5XfUrKpNjmvtm7yDiPhU-29" value="PNR" style="swimlane;childLayout=stackLayout;horizontal=1;startSize=50;horizontalStack=0;rounded=1;fontSize=14;fontStyle=0;strokeWidth=2;resizeParent=0;resizeLast=1;shadow=0;dashed=0;align=center;arcSize=4;whiteSpace=wrap;html=1;fillColor=#d5e8d4;strokeColor=#82b366;" vertex="1" parent="1">
          <mxGeometry x="-100" y="510" width="160" height="150" as="geometry" />
        </mxCell>
        <mxCell id="5XfUrKpNjmvtm7yDiPhU-30" value="+ pnr PK&lt;br&gt;+ passengers count" style="align=left;strokeColor=none;fillColor=none;spacingLeft=4;fontSize=12;verticalAlign=top;resizable=0;rotatable=0;part=1;html=1;" vertex="1" parent="5XfUrKpNjmvtm7yDiPhU-29">
          <mxGeometry y="50" width="160" height="100" as="geometry" />
        </mxCell>
        <mxCell id="5XfUrKpNjmvtm7yDiPhU-33" value="Flight" style="swimlane;childLayout=stackLayout;horizontal=1;startSize=50;horizontalStack=0;rounded=1;fontSize=14;fontStyle=0;strokeWidth=2;resizeParent=0;resizeLast=1;shadow=0;dashed=0;align=center;arcSize=4;whiteSpace=wrap;html=1;fillColor=#d5e8d4;strokeColor=#82b366;" vertex="1" parent="1">
          <mxGeometry x="120" y="220" width="160" height="170" as="geometry" />
        </mxCell>
        <mxCell id="5XfUrKpNjmvtm7yDiPhU-34" value="+ id&lt;br&gt;+ from&lt;br&gt;+ to&lt;br&gt;+ aircraft&lt;br&gt;+ departure&lt;br&gt;+ landing&lt;br&gt;+ is cancelled&amp;nbsp;" style="align=left;strokeColor=none;fillColor=none;spacingLeft=4;fontSize=12;verticalAlign=top;resizable=0;rotatable=0;part=1;html=1;" vertex="1" parent="5XfUrKpNjmvtm7yDiPhU-33">
          <mxGeometry y="50" width="160" height="120" as="geometry" />
        </mxCell>
        <mxCell id="5XfUrKpNjmvtm7yDiPhU-35" style="edgeStyle=orthogonalEdgeStyle;rounded=0;orthogonalLoop=1;jettySize=auto;html=1;exitX=1;exitY=0.25;exitDx=0;exitDy=0;entryX=-0.012;entryY=0.142;entryDx=0;entryDy=0;entryPerimeter=0;curved=1;" edge="1" parent="1" source="5XfUrKpNjmvtm7yDiPhU-19" target="5XfUrKpNjmvtm7yDiPhU-34">
          <mxGeometry relative="1" as="geometry" />
        </mxCell>
        <mxCell id="5XfUrKpNjmvtm7yDiPhU-36" style="edgeStyle=orthogonalEdgeStyle;rounded=0;orthogonalLoop=1;jettySize=auto;html=1;exitX=1;exitY=0.25;exitDx=0;exitDy=0;entryX=0;entryY=0.25;entryDx=0;entryDy=0;curved=1;" edge="1" parent="1" source="5XfUrKpNjmvtm7yDiPhU-19" target="5XfUrKpNjmvtm7yDiPhU-34">
          <mxGeometry relative="1" as="geometry" />
        </mxCell>
        <mxCell id="5XfUrKpNjmvtm7yDiPhU-37" style="edgeStyle=orthogonalEdgeStyle;curved=1;rounded=0;orthogonalLoop=1;jettySize=auto;html=1;exitX=1;exitY=0.25;exitDx=0;exitDy=0;entryX=0;entryY=0.5;entryDx=0;entryDy=0;" edge="1" parent="1" source="5XfUrKpNjmvtm7yDiPhU-25" target="5XfUrKpNjmvtm7yDiPhU-34">
          <mxGeometry relative="1" as="geometry" />
        </mxCell>
        <mxCell id="5XfUrKpNjmvtm7yDiPhU-38" value="Booking" style="swimlane;childLayout=stackLayout;horizontal=1;startSize=50;horizontalStack=0;rounded=1;fontSize=14;fontStyle=0;strokeWidth=2;resizeParent=0;resizeLast=1;shadow=0;dashed=0;align=center;arcSize=4;whiteSpace=wrap;html=1;fillColor=#d5e8d4;strokeColor=#82b366;" vertex="1" parent="1">
          <mxGeometry x="350" y="340" width="160" height="260" as="geometry" />
        </mxCell>
        <mxCell id="5XfUrKpNjmvtm7yDiPhU-39" value="+ id&lt;br&gt;+ Flight&lt;br&gt;+ pnr&lt;br&gt;+ special service&lt;br&gt;+ class&lt;br&gt;+ cabin&lt;br&gt;+ checking&lt;br&gt;+ baggage&lt;br&gt;+ ssr count" style="align=left;strokeColor=none;fillColor=none;spacingLeft=4;fontSize=12;verticalAlign=top;resizable=0;rotatable=0;part=1;html=1;" vertex="1" parent="5XfUrKpNjmvtm7yDiPhU-38">
          <mxGeometry y="50" width="160" height="210" as="geometry" />
        </mxCell>
        <mxCell id="5XfUrKpNjmvtm7yDiPhU-40" style="edgeStyle=orthogonalEdgeStyle;curved=1;rounded=0;orthogonalLoop=1;jettySize=auto;html=1;exitX=1;exitY=0.25;exitDx=0;exitDy=0;entryX=0;entryY=0.25;entryDx=0;entryDy=0;" edge="1" parent="1" source="5XfUrKpNjmvtm7yDiPhU-30" target="5XfUrKpNjmvtm7yDiPhU-39">
          <mxGeometry relative="1" as="geometry" />
        </mxCell>
        <mxCell id="5XfUrKpNjmvtm7yDiPhU-41" style="edgeStyle=orthogonalEdgeStyle;curved=1;rounded=0;orthogonalLoop=1;jettySize=auto;html=1;exitX=1;exitY=0.25;exitDx=0;exitDy=0;entryX=0;entryY=0.25;entryDx=0;entryDy=0;" edge="1" parent="1" source="5XfUrKpNjmvtm7yDiPhU-34" target="5XfUrKpNjmvtm7yDiPhU-39">
          <mxGeometry relative="1" as="geometry" />
        </mxCell>
        <mxCell id="5XfUrKpNjmvtm7yDiPhU-42" style="edgeStyle=orthogonalEdgeStyle;curved=1;rounded=0;orthogonalLoop=1;jettySize=auto;html=1;exitX=1;exitY=0.5;exitDx=0;exitDy=0;entryX=0;entryY=0.25;entryDx=0;entryDy=0;" edge="1" parent="1" source="5XfUrKpNjmvtm7yDiPhU-28" target="5XfUrKpNjmvtm7yDiPhU-30">
          <mxGeometry relative="1" as="geometry" />
        </mxCell>
        <mxCell id="5XfUrKpNjmvtm7yDiPhU-43" style="edgeStyle=orthogonalEdgeStyle;curved=1;rounded=0;orthogonalLoop=1;jettySize=auto;html=1;exitX=0;exitY=0.25;exitDx=0;exitDy=0;entryX=1;entryY=0.25;entryDx=0;entryDy=0;" edge="1" parent="1" source="5XfUrKpNjmvtm7yDiPhU-21" target="5XfUrKpNjmvtm7yDiPhU-39">
          <mxGeometry relative="1" as="geometry" />
        </mxCell>
        <mxCell id="5XfUrKpNjmvtm7yDiPhU-44" style="edgeStyle=orthogonalEdgeStyle;curved=1;rounded=0;orthogonalLoop=1;jettySize=auto;html=1;exitX=0;exitY=0.25;exitDx=0;exitDy=0;entryX=1;entryY=0.25;entryDx=0;entryDy=0;" edge="1" parent="1" source="5XfUrKpNjmvtm7yDiPhU-22" target="5XfUrKpNjmvtm7yDiPhU-39">
          <mxGeometry relative="1" as="geometry" />
        </mxCell>
        <mxCell id="5XfUrKpNjmvtm7yDiPhU-49" style="edgeStyle=orthogonalEdgeStyle;curved=1;rounded=0;orthogonalLoop=1;jettySize=auto;html=1;exitX=1;exitY=0.25;exitDx=0;exitDy=0;entryX=0;entryY=0.75;entryDx=0;entryDy=0;" edge="1" parent="1" source="5XfUrKpNjmvtm7yDiPhU-45" target="5XfUrKpNjmvtm7yDiPhU-39">
          <mxGeometry relative="1" as="geometry" />
        </mxCell>
        <mxCell id="5XfUrKpNjmvtm7yDiPhU-45" value="SSR" style="swimlane;childLayout=stackLayout;horizontal=1;startSize=50;horizontalStack=0;rounded=1;fontSize=14;fontStyle=0;strokeWidth=2;resizeParent=0;resizeLast=1;shadow=0;dashed=0;align=center;arcSize=4;whiteSpace=wrap;html=1;fillColor=#d5e8d4;strokeColor=#82b366;" vertex="1" parent="1">
          <mxGeometry x="120" y="650" width="160" height="110" as="geometry" />
        </mxCell>
        <mxCell id="5XfUrKpNjmvtm7yDiPhU-46" value="+ id&lt;br&gt;+ name&lt;br&gt;+ price" style="align=left;strokeColor=none;fillColor=none;spacingLeft=4;fontSize=12;verticalAlign=top;resizable=0;rotatable=0;part=1;html=1;" vertex="1" parent="5XfUrKpNjmvtm7yDiPhU-45">
          <mxGeometry y="50" width="160" height="60" as="geometry" />
        </mxCell>
      </root>
    </mxGraphModel>
  </diagram>
</mxfile>
